<svg width="43" height="43" viewBox="0 0 43 43" fill="none" xmlns="http://www.w3.org/2000/svg">
<path d="M38.5757 36.6743L30.1655 28.2658C32.6031 25.3393 33.8187 21.5856 33.5592 17.7858C33.2998 13.9859 31.5854 10.4323 28.7726 7.86424C25.9599 5.29619 22.2654 3.9114 18.4576 3.99793C14.6499 4.08447 11.0221 5.63568 8.32888 8.32885C5.63571 11.022 4.0845 14.6498 3.99797 18.4576C3.91143 22.2653 5.29622 25.9599 7.86427 28.7726C10.4323 31.5854 13.9859 33.2998 17.7858 33.5592C21.5857 33.8186 25.3393 32.6031 28.2658 30.1655L36.6743 38.5757C36.7992 38.7005 36.9474 38.7996 37.1105 38.8671C37.2736 38.9347 37.4485 38.9695 37.625 38.9695C37.8016 38.9695 37.9764 38.9347 38.1395 38.8671C38.3027 38.7996 38.4509 38.7005 38.5757 38.5757C38.7006 38.4508 38.7996 38.3026 38.8672 38.1395C38.9347 37.9764 38.9695 37.8015 38.9695 37.625C38.9695 37.4484 38.9347 37.2736 38.8672 37.1105C38.7996 36.9473 38.7006 36.7991 38.5757 36.6743ZM6.71877 18.8125C6.71877 16.4206 7.42805 14.0824 8.75693 12.0936C10.0858 10.1048 11.9746 8.55467 14.1844 7.63932C16.3943 6.72397 18.8259 6.48447 21.1719 6.95111C23.5178 7.41775 25.6727 8.56957 27.3641 10.2609C29.0554 11.9523 30.2073 14.1072 30.6739 16.4531C31.1405 18.7991 30.901 21.2307 29.9857 23.4406C29.0703 25.6504 27.5203 27.5392 25.5314 28.8681C23.5426 30.197 21.2044 30.9062 18.8125 30.9062C15.6061 30.9027 12.5321 29.6274 10.2649 27.3601C7.99762 25.0929 6.72232 22.0189 6.71877 18.8125Z" fill="black"/>
</svg>
